# AST/ASF file generated using VICON BodyLanguage
# -----------------------------------------------
:version 1.10
:name VICON
:units
  mass 1.0
  length 0.45
  angle deg
:documentation
   .ast/.asf automatically generated from VICON data using
   VICON BodyBuilder and BodyLanguage model FoxedUp or BRILLIANT.MOD
:root
   order TX TY TZ RX RY RZ
   axis XYZ
   position 0 0 0  
   orientation 0 0 0 
:bonedata
  begin
     id 1 
     name lhipjoint
     direction 0.521689 -0.742065 0.420928 
     length 2.47002 
     axis 0 0 0  XYZ
  end
  begin
     id 2 
     name lfemur
     direction 0.34202 -0.939693 0  
     length 7.24654  
     axis 0 0 20  XYZ
    dof rx ry rz
    limits (-160.0 20.0)
           (-70.0 70.0)
           (-60.0 70.0)
  end
  begin
     id 3 
     name ltibia
     direction 0.34202 -0.939693 0   
     length 8.04849   
     axis 0 0 20   XYZ
    dof rx
    limits (-10.0 170.0)
  end
  begin
     id 4 
     name lfoot
     direction 0.0745411 -0.2048 0.975961   
     length 1.72367   
     axis -90 7.62852e-016 20   XYZ
    dof rx rz
    limits (-45.0 90.0)
           (-70.0 20.0)
  end
  begin
     id 5 
     name ltoes
     direction 1.53556e-011 -4.21901e-011 1   
     length 0.87311   
     axis -90 7.62852e-016 20   XYZ
    dof rx
    limits (-90.0 20.0)
  end
  begin
     id 6 
     name rhipjoint
     direction -0.52849 -0.738415 0.418857   
     length 2.48223  
     axis 0 0 0  XYZ 
  end
  begin
     id 7 
     name rfemur
     direction -0.34202 -0.939693 0   
     length 7.15571   
     axis 0 0 -20   XYZ
    dof rx ry rz
    limits (-160.0 20.0)
           (-70.0 70.0)
           (-70.0 60.0)
  end
  begin
     id 8 
     name rtibia
     direction -0.34202 -0.939693 0   
     length 7.81659   
     axis 0 0 -20   XYZ
    dof rx
    limits (-10.0 170.0)
 end
 begin
     id 9 
     name rfoot
     direction -0.0917348 -0.252039 0.963359   
     length 1.84382  
     axis -90 -7.62852e-016 -20   XYZ
    dof rx rz
    limits (-45.0 90.0)
           (-20.0 70.0)
  end
  begin
     id 10 
     name rtoes
     direction -1.53551e-011 -4.21879e-011 1   
     length 0.927771   
     axis -90 -7.62852e-016 -20   XYZ
    dof rx
    limits (-90.0 20.0)
  end
  begin
     id 11 
     name lowerback
     direction 0.00583058 0.999822 0.0179296   
     length 2.1429   
     axis 0 0 0   XYZ
    dof rx ry rz
    limits (-20.0 45.0)
           (-30.0 30.0)
           (-30.0 30.0)
  end
  begin
     id 12 
     name upperback
     direction -0.0137999 0.999752 -0.0175071   
     length 2.14252   
     axis 0 0 0   XYZ
    dof rx ry rz
    limits (-20.0 45.0)
           (-30.0 30.0)
           (-30.0 30.0)
  end
  begin
     id 13 
     name thorax
     direction -0.0158036 0.99955 -0.0254909   
     length 2.1383   
     axis 0 0 0   XYZ
    dof rx ry rz
    limits (-20.0 45.0)
           (-30.0 30.0)
           (-30.0 30.0)
  end
  begin
     id 14 
     name lowerneck
     direction -0.0101179 0.999403 -0.0330262   
     length 1.65808   
     axis 0 0 0   XYZ
    dof rx ry rz
    limits (-20.0 45.0)
           (-30.0 30.0)
           (-30.0 30.0)
  end
  begin
     id 15 
     name upperneck
     direction 0.0497734 0.995978 -0.074501   
     length 1.5897   
     axis 0 0 0   XYZ
    dof rx ry rz
    limits (-20.0 45.0)
           (-30.0 30.0)
           (-30.0 30.0)
  end
  begin
     id 16
     name head
     direction 0.0189524 0.999519 -0.0245438  
     length 1.74024  
     axis 0 0 0   XYZ
    dof rx ry rz
    limits (-20.0 45.0)
           (-30.0 30.0)
           (-30.0 30.0)
  end
  begin
     id 17 
     name lclavicle
     direction 0.945604 0.324422 0.0241537  
     length 3.59089  
     axis 0 0 0   XYZ
    dof ry rz
    limits (-20.0 10.0)
           (0.0 20.0)
  end
  begin
     id 18 
     name lhumerus
     direction 1 -4.48964e-011 -2.63524e-027   
     length 5.2391   
     axis 180 -30 -90   XYZ
    dof rx ry rz
    limits (-60.0 90.0)
           (-90.0 90.0)
           (-90.0 90.0)
  end
  begin
     id 19
     name lradius
     direction 1 -4.48969e-011 3.86978e-028   
     length 3.31467   
     axis 180 -30 -90   XYZ
    dof rx
    limits (-10.0 170.0)
  end
  begin
     id 20
     name lwrist
     direction 1 -4.48963e-011 7.20928e-028   
     length 1.65734   
     axis -5.52449e-016 90 90   XYZ
    dof ry
    limits (-180.0 0.0)
 end
  begin
     id 21 
     name lhand
     direction 1 -4.48964e-011 1.44186e-027   
     length 0.9659   
     axis -9.20027e-016 90 90   XYZ
    dof rx rz
    limits (-90.0 90.0)
           (-45.0 45.0)
  end
  begin
     id 22 
     name lfingers
     direction 1 -4.48965e-011 2.88371e-027   
     length 0.778733   
     axis -1.84005e-015 90 90   XYZ
    dof rx
    limits (0.0 90.0)
  end
  begin
     id 23
     name lthumb
     direction 0.707107 -6.34931e-011 0.707107   
     length 1.11811   
     axis -90 45 2.85299e-015   XYZ
    dof rx rz
    limits (-45.0 45.0)
           (-45.0 45.0)
  end
  begin
     id 24 
     name rclavicle
     direction -0.923762 0.370785 0.0958234   
     length 3.54196  
     axis 0 0 0   XYZ 
    dof ry rz
    limits (-10.0 20.0)
           (-20.0 0.0)
  end
  begin
     id 25 
     name rhumerus
     direction -1 -4.48966e-011 1.18702e-017  
     length 5.30252   
     axis 180 30 90   XYZ
    dof rx ry rz
    limits (-90.0 60.0)
           (-90.0 90.0)
           (-90.0 90.0)
  end
  begin
     id 26 
     name rradius
     direction -1 -4.48966e-011 4.46736e-027   
     length 3.67875   
     axis 180 30 90   XYZ
    dof rx
    limits (-10.0 170.0)
  end
  begin
     id 27 
     name rwrist
     direction -1 -4.48966e-011 7.20928e-028   
     length 1.83937   
     axis -5.52449e-016 -90 -90   XYZ
    dof ry
    limits (-180.0 0.0)
  end
  begin
     id 28
     name rhand
     direction -1 -4.48973e-011 1.44186e-027   
     length 0.594811   
     axis -9.20027e-016 -90 -90   XYZ
    dof rx rz
    limits (-90.0 90.0)
           (-45.0 45.0)
  end
  begin
     id 29
     name rfingers
     direction -1 -4.48963e-011 2.88371e-027   
     length 0.479552   
     axis -1.84005e-015 -90 -90   XYZ
    dof rx
    limits (0.0 90.0)
  end
  begin
     id 30
     name rthumb
     direction -0.707107 -6.34932e-011 0.707107   
     length 0.688544   
     axis -90 -45 -2.85299e-015   XYZ
    dof rx rz
    limits (-45.0 45.0)
           (-45.0 45.0)
  end
:hierarchy
  begin
    root lhipjoint rhipjoint lowerback
    lhipjoint lfemur
    lfemur ltibia
    ltibia lfoot
    lfoot ltoes
    rhipjoint rfemur
    rfemur rtibia
    rtibia rfoot
    rfoot rtoes
    lowerback upperback
    upperback thorax
    thorax lowerneck lclavicle rclavicle
    lowerneck upperneck
    upperneck head
    lclavicle lhumerus
    lhumerus lradius
    lradius lwrist
    lwrist lhand lthumb
    lhand lfingers
    rclavicle rhumerus
    rhumerus rradius
    rradius rwrist
    rwrist rhand rthumb
    rhand rfingers
  end

#!OML:ASF E:\acrobat2\Project_11_07_03\Capture day 1\Session 1\Acrobat.ASF
:FULLY-SPECIFIED
:DEGREES
59
root 5.97147 18.0481 -25.2541 -138.905 86.8424 -141.439
lowerback -6.36909 -1.37379 -1.46031
upperback 1.54087 -1.74096 0.570462
thorax 5.23609 -0.916202 1.22349
lowerneck 10.9049 -16.2656 -11.8544
upperneck -3.67581 -22.4838 20.7156
head 0.937344 -11.7822 7.957
rclavicle -1.14922e-014 7.95139e-016
rhumerus -37.3295 1.83319 -81.347
rradius 28.8882
rwrist -1.5209
rhand -7.27992 -39.8772
rfingers 7.12502
rthumb 18.6016 -69.0078
lclavicle -1.14922e-014 7.95139e-016
lhumerus -31.4104 -7.49428 85.3144
lradius 23.5377
lwrist 10.5715
lhand -8.8632 -11.5565
lfingers 7.12502
lthumb 17.0781 17.7128
rfemur 6.8151 14.2388 14.6219
rtibia -1.34692
rfoot -35.5267 -35.9469
rtoes 18.5779
lfemur 5.54697 -5.83745 -7.36515
ltibia 1.5691
lfoot -18.5208 0.777121
ltoes 32.8268
60
root 5.97315 18.0484 -25.2551 -138.869 86.8258 -141.392
lowerback -6.37421 -1.37454 -1.43693
upperback 1.54596 -1.74365 0.567053
thorax 5.24356 -0.916807 1.20636
lowerneck 10.9003 -16.2662 -11.7926
upperneck -3.71084 -22.4713 20.6568
head 0.911559 -11.7758 7.9354
rclavicle -6.31141e-015 -4.17448e-015
rhumerus -37.3602 1.64256 -81.2481
rradius 28.935
rwrist -1.10787
rhand -7.12773 -39.9936
rfingers 7.12502
rthumb 18.748 -69.1101
lclavicle -6.31141e-015 -4.17448e-015
lhumerus -31.3774 -7.26397 85.1949
lradius 23.482
lwrist 10.3513
lhand -8.82316 -11.612
lfingers 7.12502
lthumb 17.1167 17.654
rfemur 6.84055 14.2137 14.6312
rtibia -1.36185
rfoot -35.5095 -35.8964
rtoes 18.6699
lfemur 5.57578 -5.90459 -7.37497
ltibia 1.53822
lfoot -18.5958 0.814198
ltoes 32.9376
61
root 5.97432 18.0486 -25.2561 -138.928 86.8249 -141.452
lowerback -6.39148 -1.38601 -1.42826
upperback 1.54938 -1.759 0.55807
thorax 5.25691 -0.924063 1.19002
lowerneck 10.8816 -16.2555 -11.7294
upperneck -3.725 -22.4451 20.5964
head 0.891446 -11.7612 7.91204
rclavicle 2.45002e-014 -1.03368e-014
rhumerus -37.4006 1.55121 -81.257
rradius 28.9758
rwrist -0.862283
rhand -6.93984 -40.0947
rfingers 7.12502
rthumb 18.9287 -69.1937
lclavicle 2.45002e-014 -1.03368e-014
lhumerus -31.3725 -7.08426 85.0905
lradius 23.4538
lwrist 10.2954
lhand -8.88105 -11.5496
lfingers 7.12502
lthumb 17.0609 17.7212
rfemur 6.7849 13.9105 14.5305
rtibia -1.31106
rfoot -35.2135 -35.7021
rtoes 18.5313
lfemur 5.60063 -6.07958 -7.43162
ltibia 1.4998
lfoot -18.7678 0.922771
ltoes 32.8234
62
root 5.97551 18.0483 -25.2582 -140.542 86.8438 -143.087
lowerback -6.42839 -1.40146 -1.48648
upperback 1.54607 -1.77235 0.519443
thorax 5.27547 -0.931939 1.18027
lowerneck 10.8554 -16.2606 -11.6349
upperneck -3.71585 -22.4376 20.5374
head 0.87898 -11.7549 7.88174
rclavicle -1.2424e-016 1.98785e-016
rhumerus -37.4415 1.63234 -81.3612
rradius 29.0013
rwrist -0.87613
rhand -6.88141 -39.8939
rfingers 7.12502
rthumb 18.9849 -68.9874
lclavicle -1.2424e-016 1.98785e-016
lhumerus -31.3566 -6.90663 84.9784
lradius 23.4214
lwrist 10.2493
lhand -8.88085 -11.4574
lfingers 7.12502
lthumb 17.0611 17.8134
rfemur 6.74052 13.7626 14.3809
rtibia -1.26749
rfoot -35.235 -35.5359
rtoes 18.8353
lfemur 5.56312 -6.11844 -7.559
ltibia 1.52797
lfoot -18.7671 0.941127
ltoes 32.7396
63
root 5.97648 18.0476 -25.2605 -142.592 86.8862 -145.173
lowerback -6.47228 -1.40082 -1.57833
upperback 1.53559 -1.76075 0.471387
thorax 5.29043 -0.928312 1.1823
lowerneck 10.8623 -16.263 -11.5984
upperneck -3.72758 -22.4329 20.5714
head 0.873735 -11.7542 7.88887
rclavicle -2.49723e-015 -5.1684e-015
rhumerus -37.4744 1.88393 -81.4785
rradius 29.05
rwrist -1.14191
rhand -6.87408 -39.773
rfingers 7.12502
rthumb 18.9919 -68.8658
lclavicle -2.49723e-015 -5.1684e-015
lhumerus -31.3374 -6.8014 84.9099
lradius 23.3872
lwrist 10.1761
lhand -8.90504 -11.4
lfingers 7.12502
lthumb 17.0378 17.8728
rfemur 6.72681 13.7945 14.239
rtibia -1.28218
rfoot -35.3588 -35.5464
rtoes 19.1155
lfemur 5.5143 -6.12331 -7.70583
ltibia 1.54556
lfoot -18.726 0.921074
ltoes 32.5752
64
root 5.97734 18.0467 -25.2613 -143.352 86.9079 -145.955
lowerback -6.50859 -1.40294 -1.57782
upperback 1.53644 -1.76124 0.435918
thorax 5.31078 -0.928042 1.14424
lowerneck 10.8303 -16.2564 -11.5837
upperneck -3.70758 -22.4223 20.5765
head 0.881834 -11.7468 7.88532
rclavicle 2.00027e-015 2.38542e-015
rhumerus -37.4781 2.08744 -81.5869
rradius 29.0865
rwrist -1.42752
rhand -7.075 -39.8117
rfingers 7.12502
rthumb 18.7987 -68.9233
lclavicle 2.00027e-015 2.38542e-015
lhumerus -31.3239 -6.75675 84.848
lradius 23.3292
lwrist 10.1377
lhand -9.00052 -11.4174
lfingers 7.12502
lthumb 16.9459 17.8633
rfemur 6.70996 13.7709 14.1668
rtibia -1.28962
rfoot -35.3036 -35.5924
rtoes 19.1799
lfemur 5.50002 -6.15393 -7.76021
ltibia 1.53044
lfoot -18.7375 0.940426
ltoes 32.4051
65
root 5.97911 18.0461 -25.2612 -143.468 86.9112 -146.074
lowerback -6.53682 -1.4156 -1.58633
upperback 1.54596 -1.7773 0.443142
thorax 5.33787 -0.936588 1.15391
lowerneck 10.7894 -16.2567 -11.6043
upperneck -3.69273 -22.4261 20.5628
head 0.893942 -11.7459 7.87846
rclavicle 8.17502e-015 4.96962e-015
rhumerus -37.4749 2.02508 -81.5552
rradius 29.0946
rwrist -1.34435
rhand -7.19077 -39.8375
rfingers 7.12502
rthumb 18.6873 -68.9599
lclavicle 8.17502e-015 4.96962e-015
lhumerus -31.2877 -6.52702 84.7495
lradius 23.2302
lwrist 9.95841
lhand -9.09366 -11.4466
lfingers 7.12502
lthumb 16.8563 17.8418
rfemur 6.7247 13.7916 14.163
rtibia -1.30775
rfoot -35.2996 -35.6026
rtoes 19.1772
lfemur 5.51035 -6.15022 -7.77361
ltibia 1.51434
lfoot -18.7292 1.03547
ltoes 32.249
66
root 5.98087 18.045 -25.2608 -142.878 86.8955 -145.504
lowerback -6.56829 -1.4189 -1.61235
upperback 1.53632 -1.78124 0.485967
thorax 5.34808 -0.940078 1.21193
lowerneck 10.8182 -16.2473 -11.6585
upperneck -3.71517 -22.4191 20.6309
head 0.896286 -11.7458 7.90895
rclavicle 9.92681e-015 3.97569e-015
rhumerus -37.5135 1.93768 -81.4331
rradius 29.1336
rwrist -1.18301
rhand -6.87628 -39.655
rfingers 7.12502
rthumb 18.9898 -68.748
lclavicle 9.92681e-015 3.97569e-015
lhumerus -31.2849 -6.34448 84.7026
lradius 23.1648
lwrist 9.83467
lhand -9.20907 -11.4175
lfingers 7.12502
lthumb 16.7452 17.8803
rfemur 6.69043 13.6902 14.1898
rtibia -1.31813
rfoot -34.952 -35.7684
rtoes 18.1089
lfemur 5.49866 -6.1749 -7.72581
ltibia 1.51285
lfoot -18.7358 1.14165
ltoes 31.9065
67
root 5.9816 18.0443 -25.2609 -143.047 86.8964 -145.701
lowerback -6.59902 -1.4097 -1.63554
upperback 1.52217 -1.76673 0.490096
thorax 5.35111 -0.933624 1.23035
lowerneck 10.8191 -16.252 -11.6408
upperneck -3.69882 -22.4245 20.6197
head 0.898352 -11.7477 7.90246
rclavicle -4.39811e-015 -5.96354e-016
rhumerus -37.5345 1.83427 -81.3668
rradius 29.1277
rwrist -1.11945
rhand -6.56626 -39.3575
rfingers 7.12502
rthumb 19.2879 -68.421
lclavicle -4.39811e-015 -5.96354e-016
lhumerus -31.293 -6.33945 84.7012
lradius 23.1102
lwrist 9.85126
lhand -9.30169 -11.4134
lfingers 7.12502
lthumb 16.656 17.892
rfemur 6.70475 13.8616 14.2443
rtibia -1.38531
rfoot -34.9824 -36.1471
rtoes 17.3733
lfemur 5.45961 -6.20583 -7.7259
ltibia 1.53852
lfoot -18.7354 1.14709
ltoes 31.5705
68
root 5.98172 18.0443 -25.2611 -144.274 86.9395 -146.954
lowerback -6.62525 -1.39993 -1.69465
upperback 1.51406 -1.7465 0.457072
thorax 5.35761 -0.924923 1.23099
lowerneck 10.7886 -16.2838 -11.6245
upperneck -3.67276 -22.4678 20.5837
head 0.911563 -11.7661 7.88175
rclavicle -1.52443e-014 2.98177e-015
rhumerus -37.5692 1.83249 -81.4359
rradius 29.1474
rwrist -1.19862
rhand -6.66985 -39.3764
rfingers 7.12502
rthumb 19.1883 -68.4499
lclavicle -1.52443e-014 2.98177e-015
lhumerus -31.2637 -6.22963 84.6249
lradius 23.0154
lwrist 9.77268
lhand -9.18951 -11.5151
lfingers 7.12502
lthumb 16.764 17.7811
rfemur 6.7632 14.3011 14.2458
rtibia -1.44439
rfoot -35.633 -36.2347
rtoes 18.0261
lfemur 5.41154 -6.19551 -7.82132
ltibia 1.56884
lfoot -18.6926 1.0869
ltoes 31.7709
